<svg width="24" height="24" viewBox="0 0 24 24" fill="none" xmlns="http://www.w3.org/2000/svg">
<path d="M11.9995 2.16016C17.4254 2.16016 21.8395 6.57429 21.8395 12.0002C21.8395 17.426 17.4254 21.8402 11.9995 21.8402C6.57368 21.8402 2.15955 17.426 2.15955 12.0002C2.15955 6.57429 6.57368 2.16016 11.9995 2.16016ZM9.53955 16.2117C11.8824 16.2117 13.7886 14.3224 13.7886 12.0002C13.7886 11.5064 13.3879 11.1056 12.8941 11.1056H9.83296C9.33917 11.1056 8.93841 11.5064 8.93841 12.0002C8.93841 12.4939 9.33917 12.8947 9.83296 12.8947H11.8256C11.4633 13.7888 10.575 14.4226 9.53955 14.4226C8.18341 14.4226 7.07955 13.3362 7.07955 12.0002C7.07955 10.6642 8.18341 9.57773 9.53955 9.57773C10.0646 9.57773 10.5651 9.7383 10.9878 10.0424C11.3895 10.3318 11.9481 10.2392 12.2362 9.83849C12.5251 9.43773 12.4334 8.87864 12.0326 8.5897C11.3036 8.0655 10.4417 7.78819 9.53955 7.78819C7.19673 7.78819 5.29045 9.67747 5.29045 11.9997C5.29045 14.3219 7.19673 16.2117 9.53955 16.2117ZM18.0377 12.8947C18.5315 12.8947 18.9323 12.4939 18.9323 12.0002C18.9323 11.5064 18.5315 11.1056 18.0377 11.1056H17.6133V10.4571C17.6133 9.96328 17.2125 9.56252 16.7187 9.56252C16.2249 9.56252 15.8242 9.96328 15.8242 10.4571V11.1056H15.3541C14.8603 11.1056 14.4595 11.5064 14.4595 12.0002C14.4595 12.4939 14.8603 12.8947 15.3541 12.8947H15.8242V13.5432C15.8242 14.037 16.2249 14.4378 16.7187 14.4378C17.2125 14.4378 17.6133 14.037 17.6133 13.5432V12.8947H18.0377Z" fill="#181818"/>
</svg>
