<svg width="24" height="24" viewBox="0 0 24 24" fill="none" xmlns="http://www.w3.org/2000/svg">
<path d="M11.9111 2.16016C2.8672 2.16016 2.15955 2.8683 2.15955 11.9117V12.0886C2.15955 21.132 2.8672 21.8402 11.9111 21.8402H12.088C21.1319 21.8402 21.8395 21.132 21.8395 12.0886V12.0002C21.8395 2.87454 21.1252 2.16016 11.9995 2.16016H11.9111ZM17.9007 5.11216C18.4443 5.11068 18.8861 5.54961 18.8875 6.09327C18.889 6.63693 18.4501 7.07868 17.9064 7.08016C17.3628 7.08163 16.921 6.6427 16.9195 6.09904C16.9181 5.55538 17.357 5.11363 17.9007 5.11216ZM11.988 7.08016C14.7048 7.07376 16.9131 9.2718 16.9195 11.9886C16.9259 14.7054 14.7279 16.9138 12.0111 16.9202C9.29425 16.9266 7.08594 14.7285 7.07955 12.0117C7.07315 9.29486 9.27119 7.08655 11.988 7.08016ZM11.9928 9.04816C10.3623 9.05209 9.04361 10.3774 9.04755 12.0078C9.05148 13.6378 10.3763 14.9561 12.0063 14.9522C13.6368 14.9482 14.9555 13.6234 14.9515 11.9934C14.9476 10.3629 13.6228 9.04422 11.9928 9.04816Z" fill="#181818"/>
</svg>
