<svg width="24" height="24" viewBox="0 0 24 24" fill="none" xmlns="http://www.w3.org/2000/svg">
<path d="M19.4967 2.16016H4.5024C3.20915 2.16016 2.15955 3.20976 2.15955 4.50301V19.4973C2.15955 20.7906 3.20915 21.8402 4.5024 21.8402H19.4967C20.7899 21.8402 21.8395 20.7906 21.8395 19.4973V4.50301C21.8395 3.20976 20.7899 2.16016 19.4967 2.16016ZM8.25097 9.6573V18.5602H5.43955V9.6573H8.25097ZM5.43955 7.0661C5.43955 6.4101 6.00183 5.90873 6.84526 5.90873C7.68869 5.90873 8.21817 6.4101 8.25097 7.0661C8.25097 7.7221 7.72617 8.25158 6.84526 8.25158C6.00183 8.25158 5.43955 7.7221 5.43955 7.0661ZM18.5595 18.5602H15.7481C15.7481 18.5602 15.7481 14.2212 15.7481 13.8744C15.7481 12.9373 15.2795 12.0002 14.1081 11.9814H14.0706C12.9367 11.9814 12.4681 12.9467 12.4681 13.8744C12.4681 14.3008 12.4681 18.5602 12.4681 18.5602H9.65669V9.6573H12.4681V10.8568C12.4681 10.8568 13.3725 9.6573 15.1905 9.6573C17.0507 9.6573 18.5595 10.9365 18.5595 13.5277V18.5602Z" fill="#181818"/>
</svg>
