<svg width="24" height="24" viewBox="0 0 24 24" fill="none" xmlns="http://www.w3.org/2000/svg">
<path d="M5.20017 1.92041C3.38867 1.92041 1.92017 3.38891 1.92017 5.20041V18.3204C1.92017 20.1319 3.38867 21.6004 5.20017 21.6004H18.3202C20.1317 21.6004 21.6002 20.1319 21.6002 18.3204V5.20041C21.6002 3.38891 20.1317 1.92041 18.3202 1.92041H5.20017ZM6.17758 6.13755H9.89686L12.5381 9.8907L15.743 6.13755H16.9145L13.067 10.6421L17.8113 17.3833H14.093L11.028 13.0288L7.30874 17.3833H6.13731L10.499 12.2775L6.17758 6.13755ZM7.97133 7.0747L14.5817 16.4461H16.0176L9.40724 7.0747H7.97133Z" fill="#181818"/>
</svg>
